<svg width="24" height="25" viewBox="0 0 24 25" fill="none" xmlns="http://www.w3.org/2000/svg">
<g clip-path="url(#clip0_1_125)">
<path d="M12 2.22096C15.2063 2.22096 15.5859 2.23542 16.8469 2.29323C18.0188 2.34622 18.6516 2.54857 19.0734 2.71719C19.6313 2.9388 20.0344 3.20859 20.4516 3.63737C20.8734 4.07096 21.1313 4.48047 21.3469 5.05378C21.5109 5.48737 21.7078 6.14258 21.7594 7.34219C21.8156 8.64297 21.8297 9.0332 21.8297 12.3237C21.8297 15.619 21.8156 16.0092 21.7594 17.3052C21.7078 18.5096 21.5109 19.16 21.3469 19.5936C21.1313 20.1669 20.8688 20.5813 20.4516 21.01C20.0297 21.4436 19.6313 21.7086 19.0734 21.9302C18.6516 22.0988 18.0141 22.3012 16.8469 22.3542C15.5813 22.412 15.2016 22.4264 12 22.4264C8.79375 22.4264 8.41406 22.412 7.15313 22.3542C5.98125 22.3012 5.34844 22.0988 4.92656 21.9302C4.36875 21.7086 3.96563 21.4388 3.54844 21.01C3.12656 20.5764 2.86875 20.1669 2.65313 19.5936C2.48906 19.16 2.29219 18.5048 2.24063 17.3052C2.18438 16.0044 2.17031 15.6142 2.17031 12.3237C2.17031 9.02839 2.18438 8.63815 2.24063 7.34219C2.29219 6.13776 2.48906 5.48737 2.65313 5.05378C2.86875 4.48047 3.13125 4.06615 3.54844 3.63737C3.97031 3.20378 4.36875 2.9388 4.92656 2.71719C5.34844 2.54857 5.98594 2.34622 7.15313 2.29323C8.41406 2.23542 8.79375 2.22096 12 2.22096ZM12 0C8.74219 0 8.33438 0.0144531 7.05469 0.0722656C5.77969 0.130078 4.90313 0.342057 4.14375 0.645573C3.35156 0.963542 2.68125 1.38268 2.01563 2.07161C1.34531 2.75573 0.9375 3.44466 0.628125 4.25404C0.332812 5.03932 0.126563 5.93542 0.0703125 7.24583C0.0140625 8.56589 0 8.98503 0 12.3333C0 15.6816 0.0140625 16.1008 0.0703125 17.416C0.126563 18.7264 0.332812 19.6273 0.628125 20.4078C0.9375 21.222 1.34531 21.9109 2.01563 22.5951C2.68125 23.2792 3.35156 23.7031 4.13906 24.0163C4.90313 24.3198 5.775 24.5318 7.05 24.5896C8.32969 24.6474 8.7375 24.6619 11.9953 24.6619C15.2531 24.6619 15.6609 24.6474 16.9406 24.5896C18.2156 24.5318 19.0922 24.3198 19.8516 24.0163C20.6391 23.7031 21.3094 23.2792 21.975 22.5951C22.6406 21.9109 23.0531 21.222 23.3578 20.4126C23.6531 19.6273 23.8594 18.7313 23.9156 17.4208C23.9719 16.1056 23.9859 15.6865 23.9859 12.3382C23.9859 8.98985 23.9719 8.5707 23.9156 7.25547C23.8594 5.94505 23.6531 5.04414 23.3578 4.26367C23.0625 3.44466 22.6547 2.75573 21.9844 2.07161C21.3188 1.3875 20.6484 0.963542 19.8609 0.650391C19.0969 0.346875 18.225 0.134896 16.95 0.0770833C15.6656 0.0144531 15.2578 0 12 0Z" fill="black"/>
<path d="M12 5.99805C8.59688 5.99805 5.83594 8.83568 5.83594 12.3333C5.83594 15.831 8.59688 18.6686 12 18.6686C15.4031 18.6686 18.1641 15.831 18.1641 12.3333C18.1641 8.83568 15.4031 5.99805 12 5.99805ZM12 16.4428C9.79219 16.4428 8.00156 14.6025 8.00156 12.3333C8.00156 10.0642 9.79219 8.22383 12 8.22383C14.2078 8.22383 15.9984 10.0642 15.9984 12.3333C15.9984 14.6025 14.2078 16.4428 12 16.4428Z" fill="black"/>
<path d="M19.8469 5.74759C19.8469 6.5666 19.2 7.22663 18.4078 7.22663C17.6109 7.22663 16.9688 6.56179 16.9688 5.74759C16.9688 4.92858 17.6156 4.26855 18.4078 4.26855C19.2 4.26855 19.8469 4.9334 19.8469 5.74759Z" fill="black"/>
</g>
<defs>
<clipPath id="clip0_1_125">
<rect width="24" height="24.6667" fill="white"/>
</clipPath>
</defs>
</svg>
